<mxfile host="65bd71144e">
    <diagram id="simple_traffic_light" name="Simple Traffic Light">
        <mxGraphModel dx="774" dy="688" grid="1" gridSize="10" guides="1" tooltips="1" connect="1" arrows="1" fold="1" page="1" pageScale="1" pageWidth="827" pageHeight="1169" background="#FFFFFF" math="0" shadow="0">
            <root>
                <mxCell id="0"/>
                <mxCell id="1" parent="0"/>
                <mxCell id="arduino" value="Arduino&#10;UNO" style="rounded=1;whiteSpace=wrap;html=1;fillColor=#dae8fc;strokeColor=#6c8ebf;fontSize=14;fontStyle=1;fontColor=#000000" parent="1" vertex="1">
                    <mxGeometry x="120" y="200" width="120" height="160" as="geometry"/>
                </mxCell>
                <mxCell id="red_led" value="LED Rojo" style="ellipse;whiteSpace=wrap;html=1;aspect=fixed;fillColor=#FF0000;strokeColor=#B20000;fontColor=#000000;fontSize=12;fontStyle=1" parent="1" vertex="1">
                    <mxGeometry x="400" y="200" width="40" height="40" as="geometry"/>
                </mxCell>
                <mxCell id="yellow_led" value="LED Amarillo" style="ellipse;whiteSpace=wrap;html=1;aspect=fixed;fillColor=#FFD700;strokeColor=#B09500;fontColor=#000000;fontSize=12;fontStyle=1" parent="1" vertex="1">
                    <mxGeometry x="400" y="260" width="40" height="40" as="geometry"/>
                </mxCell>
                <mxCell id="green_led" value="LED Verde" style="ellipse;whiteSpace=wrap;html=1;aspect=fixed;fillColor=#00FF00;strokeColor=#009900;fontColor=#000000;fontSize=12;fontStyle=1" parent="1" vertex="1">
                    <mxGeometry x="400" y="320" width="40" height="40" as="geometry"/>
                </mxCell>
                <mxCell id="r1" value="220Ω" style="pointerEvents=1;verticalLabelPosition=bottom;shadow=0;dashed=0;align=center;html=1;verticalAlign=top;shape=mxgraph.electrical.resistors.resistor_2;fillColor=#f5f5f5;strokeColor=#666666;fontSize=12;fontStyle=1;fontColor=#000000" parent="1" vertex="1">
                    <mxGeometry x="300" y="210" width="60" height="20" as="geometry"/>
                </mxCell>
                <mxCell id="r2" value="220Ω" style="pointerEvents=1;verticalLabelPosition=bottom;shadow=0;dashed=0;align=center;html=1;verticalAlign=top;shape=mxgraph.electrical.resistors.resistor_2;fillColor=#f5f5f5;strokeColor=#666666;fontSize=12;fontStyle=1;fontColor=#000000" parent="1" vertex="1">
                    <mxGeometry x="300" y="270" width="60" height="20" as="geometry"/>
                </mxCell>
                <mxCell id="r3" value="220Ω" style="pointerEvents=1;verticalLabelPosition=bottom;shadow=0;dashed=0;align=center;html=1;verticalAlign=top;shape=mxgraph.electrical.resistors.resistor_2;fillColor=#f5f5f5;strokeColor=#666666;fontSize=12;fontStyle=1;fontColor=#000000" parent="1" vertex="1">
                    <mxGeometry x="300" y="330" width="60" height="20" as="geometry"/>
                </mxCell>
                <mxCell id="yu3kA8gKFEDoz_xNnf48-1" style="edgeStyle=none;html=1;" edge="1" parent="1" source="pin_labels" target="arduino">
                    <mxGeometry relative="1" as="geometry"/>
                </mxCell>
                <mxCell id="yu3kA8gKFEDoz_xNnf48-2" style="edgeStyle=none;html=1;" edge="1" parent="1" source="pin_labels" target="arduino">
                    <mxGeometry relative="1" as="geometry"/>
                </mxCell>
                <mxCell id="pin_labels" value="D11&#10;D10&#10;D9" style="text;html=1;align=right;verticalAlign=middle;resizable=0;points=[];autosize=1;fontSize=12;fontStyle=1;fontColor=#000000" vertex="1" parent="1">
                    <mxGeometry x="200" y="250" width="40" height="60" as="geometry"/>
                </mxCell>
                <mxCell id="c1" value="" style="endArrow=none;html=1;rounded=0;entryX=0;entryY=0.5;entryDx=0;entryDy=0;strokeWidth=2;strokeColor=#0066CC" parent="1" source="pin_labels" target="r1" edge="1">
                    <mxGeometry width="50" height="50" relative="1" as="geometry"/>
                </mxCell>
                <mxCell id="c2" value="" style="endArrow=none;html=1;rounded=0;exitX=1;exitY=0.5;exitDx=0;exitDy=0;entryX=0;entryY=0.5;entryDx=0;entryDy=0;strokeWidth=2;strokeColor=#0066CC" parent="1" source="arduino" target="r2" edge="1">
                    <mxGeometry width="50" height="50" relative="1" as="geometry"/>
                </mxCell>
                <mxCell id="c3" value="" style="endArrow=none;html=1;rounded=0;exitX=1.004;exitY=0.753;exitDx=0;exitDy=0;entryX=0;entryY=0.5;entryDx=0;entryDy=0;strokeWidth=2;strokeColor=#0066CC;exitPerimeter=0;" parent="1" source="pin_labels" target="r3" edge="1">
                    <mxGeometry width="50" height="50" relative="1" as="geometry"/>
                </mxCell>
                <mxCell id="c4" value="" style="endArrow=none;html=1;rounded=0;exitX=1;exitY=0.5;exitDx=0;exitDy=0;entryX=0;entryY=0.5;entryDx=0;entryDy=0;strokeWidth=2;strokeColor=#CC0000" parent="1" source="r1" target="red_led" edge="1">
                    <mxGeometry width="50" height="50" relative="1" as="geometry"/>
                </mxCell>
                <mxCell id="c5" value="" style="endArrow=none;html=1;rounded=0;exitX=1;exitY=0.5;exitDx=0;exitDy=0;entryX=0;entryY=0.5;entryDx=0;entryDy=0;strokeWidth=2;strokeColor=#B09500" parent="1" source="r2" target="yellow_led" edge="1">
                    <mxGeometry width="50" height="50" relative="1" as="geometry"/>
                </mxCell>
                <mxCell id="c6" value="" style="endArrow=none;html=1;rounded=0;exitX=1;exitY=0.5;exitDx=0;exitDy=0;entryX=0;entryY=0.5;entryDx=0;entryDy=0;strokeWidth=2;strokeColor=#009900" parent="1" source="r3" target="green_led" edge="1">
                    <mxGeometry width="50" height="50" relative="1" as="geometry"/>
                </mxCell>
                <mxCell id="gnd" value="GND" style="pointerEvents=1;verticalLabelPosition=bottom;shadow=0;dashed=0;align=center;html=1;verticalAlign=top;shape=mxgraph.electrical.signal_sources.signal_ground;strokeWidth=2;fontSize=12;fontStyle=1;fontColor=#000000" parent="1" vertex="1">
                    <mxGeometry x="560" y="280" width="20" height="20" as="geometry"/>
                </mxCell>
                <mxCell id="gnd_c1" value="" style="endArrow=none;html=1;rounded=0;exitX=1;exitY=0.5;exitDx=0;exitDy=0;entryX=0;entryY=0;entryDx=0;entryDy=0;strokeWidth=2;strokeColor=#666666" parent="1" source="red_led" target="gnd" edge="1">
                    <mxGeometry width="50" height="50" relative="1" as="geometry"/>
                </mxCell>
                <mxCell id="gnd_c2" value="" style="endArrow=none;html=1;rounded=0;exitX=1;exitY=0.5;exitDx=0;exitDy=0;entryX=0;entryY=0;entryDx=0;entryDy=0;strokeWidth=2;strokeColor=#666666" parent="1" source="yellow_led" target="gnd" edge="1">
                    <mxGeometry width="50" height="50" relative="1" as="geometry"/>
                </mxCell>
                <mxCell id="gnd_c3" value="" style="endArrow=none;html=1;rounded=0;exitX=1;exitY=0.5;exitDx=0;exitDy=0;entryX=0;entryY=0;entryDx=0;entryDy=0;strokeWidth=2;strokeColor=#666666" parent="1" source="green_led" target="gnd" edge="1">
                    <mxGeometry width="50" height="50" relative="1" as="geometry"/>
                </mxCell>
            </root>
        </mxGraphModel>
    </diagram>
</mxfile>